<mxfile host="db876f0a-813d-4d7c-be99-e9028139a6bc" modified="2020-11-16T12:25:00.352Z" agent="5.0 (Windows NT 6.1; Win64; x64) AppleWebKit/537.36 (KHTML, like Gecko) Code/1.47.3 Chrome/78.0.3904.130 Electron/7.3.2 Safari/537.36" etag="mssWqPXwiuH_gqJoY154" version="13.1.3">
    <diagram id="M3drq7hlUULywe45jObz" name="Editor">
        <mxGraphModel dx="590" dy="298" grid="1" gridSize="10" guides="1" tooltips="1" connect="1" arrows="1" fold="1" page="1" pageScale="1" pageWidth="827" pageHeight="1169" math="0" shadow="0">
            <root>
                <mxCell id="x_8myAfqVJ25dmq6xGWm-0"/>
                <mxCell id="x_8myAfqVJ25dmq6xGWm-1" parent="x_8myAfqVJ25dmq6xGWm-0"/>
                <mxCell id="1WV5k62e5-HMiqpn4Q07-0" value="&lt;table cellpadding=&quot;4&quot; cellspacing=&quot;0&quot; border=&quot;1&quot; style=&quot;font-size: 1em ; width: 100% ; height: 100%&quot;&gt;&lt;tbody&gt;&lt;tr&gt;&lt;td&gt;内容&lt;/td&gt;&lt;th style=&quot;text-align: center&quot;&gt;用法&lt;/th&gt;&lt;/tr&gt;&lt;tr&gt;&lt;td&gt;&lt;a href=&quot;https://code.visualstudio.com/docs/editor/codebasics#_search-across-files&quot;&gt;Character Match&lt;/a&gt;&lt;/td&gt;&lt;td&gt;&lt;ol&gt;&lt;li&gt;&lt;font face=&quot;Courier New&quot;&gt;*&lt;/font&gt; - matches one or more characters in a path segment&lt;/li&gt;&lt;li&gt;&lt;font face=&quot;Courier New&quot;&gt;?&lt;/font&gt; -&amp;nbsp;matches one character in a path segment&lt;/li&gt;&lt;li&gt;&lt;font face=&quot;Courier New&quot;&gt;** -&lt;/font&gt;&amp;nbsp;matches any number of path segments, including none&lt;/li&gt;&lt;li&gt;&lt;font face=&quot;Courier New&quot; style=&quot;font-size: 1em&quot;&gt;[]&lt;/font&gt;&lt;span style=&quot;font-size: 1em&quot;&gt; - declarees a range of characters, &lt;/span&gt;&lt;font face=&quot;Courier New&quot; style=&quot;font-size: 1em&quot;&gt;example.[0-9] &lt;/font&gt;&lt;span style=&quot;font-size: 1em&quot;&gt;matches &lt;/span&gt;&lt;font face=&quot;Courier New&quot; style=&quot;font-size: 1em&quot;&gt;example.0, example.1, ...&lt;/font&gt;&lt;br&gt;&lt;/li&gt;&lt;li&gt;&lt;font face=&quot;Courier New&quot;&gt;!&lt;/font&gt; - matches negation of the characters&lt;/li&gt;&lt;li&gt;&lt;font face=&quot;Courier New&quot; style=&quot;font-size: 1em&quot;&gt;{}&lt;/font&gt;&lt;span style=&quot;font-size: 1em&quot;&gt; - group conditions，&lt;/span&gt;&lt;font face=&quot;Courier New&quot; style=&quot;font-size: 1em&quot;&gt;{**/*.html,**/*.txt}&lt;/font&gt;&lt;span style=&quot;font-size: 1em&quot;&gt; matches all html and text files&lt;/span&gt;&lt;/li&gt;&lt;/ol&gt;&lt;/td&gt;&lt;/tr&gt;&lt;tr&gt;&lt;td&gt;Debug&lt;/td&gt;&lt;td&gt;&lt;h3&gt;Operation&lt;/h3&gt;&lt;ol&gt;&lt;li&gt;&lt;font face=&quot;Courier New&quot;&gt;F9&lt;/font&gt; - set breakpoint&lt;/li&gt;&lt;li&gt;&lt;font face=&quot;Courier New&quot;&gt;shift + F9&lt;/font&gt; - inline breakpoint&lt;/li&gt;&lt;li&gt;&lt;font face=&quot;Courier New&quot;&gt;F5&lt;/font&gt; - initiate debugging&lt;/li&gt;&lt;/ol&gt;&lt;h3&gt;Conditional Breakpoints&lt;/h3&gt;&lt;div&gt;&lt;ol&gt;&lt;li&gt;expression condition&lt;/li&gt;&lt;li&gt;hit count&lt;/li&gt;&lt;/ol&gt;&lt;/div&gt;&lt;/td&gt;&lt;/tr&gt;&lt;tr&gt;&lt;td&gt;Exceptions&lt;/td&gt;&lt;td&gt;&lt;ol&gt;&lt;li&gt;无法初始化设备 PRN - 重启vscode&lt;/li&gt;&lt;/ol&gt;&lt;/td&gt;&lt;/tr&gt;&lt;/tbody&gt;&lt;/table&gt; " style="verticalAlign=top;align=left;overflow=fill;fontSize=12;fontFamily=Helvetica;html=1" parent="x_8myAfqVJ25dmq6xGWm-1" vertex="1">
                    <mxGeometry x="10" y="10" width="740" height="460" as="geometry"/>
                </mxCell>
            </root>
        </mxGraphModel>
    </diagram>
</mxfile>